<svg width="139" height="34" viewBox="0 0 139 34" fill="none" xmlns="http://www.w3.org/2000/svg">
<g clip-path="url(#clip0_425_46596)">
<path d="M7.38262 16C11.0656 17.9307 14.072 20.9419 15.9996 24.6308C17.9265 20.9438 20.9311 17.9335 24.6119 16.0029C28.7113 16.1213 32 19.662 32 24.0124C32 28.4376 28.5973 32.0249 24.3999 32.0249H0V16H7.38262ZM24.6119 16.0029C24.5415 16.0009 24.4708 16 24.3999 16H24.6182C24.6162 16.0011 24.614 16.0019 24.6119 16.0029ZM32 16H24.6182L24.6191 15.9996C20.9351 14.0692 17.9277 11.0577 15.9996 7.36833C14.0728 11.0557 11.0678 14.0658 7.38681 15.9966C3.28803 15.8776 7.80567e-08 12.3375 0 7.98754C0 3.56239 3.40272 -0.0249023 7.60009 -0.0249023H32V16ZM7.38681 15.9966C7.45764 15.9986 7.52878 16 7.60009 16H7.38262L7.38175 15.9996C7.38348 15.9986 7.38508 15.9975 7.38681 15.9966Z" fill="#FF385C"/>
<path d="M47.8336 28.8485C44.5602 28.8485 42.1797 26.7303 42.1797 23.7516C42.1797 20.7068 44.6594 18.8865 49.3544 18.39C52.5284 17.9929 53.2886 17.5957 53.2225 16.338C53.1565 15.1797 52.0656 14.5508 50.2801 14.5508C47.9327 14.5508 46.4115 15.643 46.4115 17.2648L42.6426 16.9338C42.6426 13.5911 45.7505 11.2412 50.0815 11.2412C54.413 11.2412 57.0911 13.6242 57.0911 17.4633V28.3189H53.2886V25.3403C52.3628 27.5246 50.4122 28.8485 47.8336 28.8485ZM48.7924 25.5389C51.5366 25.5389 53.2886 23.1559 53.2886 19.6146V19.4822C52.6275 20.3096 51.305 20.8391 49.5856 21.0046C47.2382 21.2694 46.0812 22.0968 46.0812 23.4207C46.0812 24.7445 47.2052 25.5389 48.7924 25.5389Z" fill="white"/>
<path d="M59.0982 28.3188V11.7706H62.9002V28.3188H59.0982ZM58.7344 9.35458V5.44922H63.2971V9.35458H58.7344Z" fill="white"/>
<path d="M72.0305 28.8485C67.3356 28.8485 64.1286 26.4655 64.0625 22.7918L67.7985 22.4609C67.8646 24.3805 69.5509 25.5389 72.0305 25.5389C74.0141 25.5389 75.4357 24.8107 75.4357 23.5199C75.4357 20.0779 64.8887 22.7588 64.8887 16.338C64.8887 12.9291 67.8316 11.2412 71.6997 11.2412C75.7995 11.2412 78.5437 13.1608 78.6428 16.338L74.8738 16.669C74.8077 15.2459 73.5512 14.5508 71.6667 14.5508C69.9808 14.5508 68.7903 15.1135 68.7903 16.1726C68.7903 19.2836 79.3374 16.9007 79.3374 23.3876C79.3374 26.7303 76.494 28.8485 72.0305 28.8485Z" fill="white"/>
<path d="M91.4849 18.2244C91.4849 15.8746 90.394 14.5507 88.5425 14.5507C86.063 14.5507 84.4427 16.8344 84.4427 20.2764V28.3188H80.6406V5.15137H84.4427V14.65C85.4345 12.5318 87.3851 11.2411 89.8321 11.2411C93.2704 11.2411 95.2875 13.7895 95.2875 18.092V28.3188H91.4849V18.2244Z" fill="white"/>
<path d="M102.404 28.8485C99.1304 28.8485 96.75 26.7303 96.75 23.7516C96.75 20.7068 99.2295 18.8865 103.925 18.39C107.098 17.9929 107.859 17.5957 107.793 16.338C107.727 15.1797 106.636 14.5508 104.851 14.5508C102.503 14.5508 100.982 15.643 100.982 17.2648L97.2129 16.9338C97.2129 13.5911 100.321 11.2412 104.652 11.2412C108.983 11.2412 111.661 13.6242 111.661 17.4633V28.3189H107.859V25.3403C106.933 27.5246 104.983 28.8485 102.404 28.8485ZM103.362 25.5389C106.107 25.5389 107.859 23.1559 107.859 19.6146V19.4822C107.198 20.3096 105.875 20.8391 104.156 21.0046C101.809 21.2694 100.651 22.0968 100.651 23.4207C100.651 24.7445 101.776 25.5389 103.362 25.5389Z" fill="white"/>
<path d="M113.477 28.3189V11.7708H117.279V15.4775C117.94 13.0615 119.197 11.7708 120.949 11.7708H123.991V15.0804H121.279C118.436 15.0804 117.279 16.8676 117.279 21.2032V28.3189H113.477Z" fill="white"/>
<path d="M131.438 28.8485C126.347 28.8485 122.875 25.3071 122.875 20.0117C122.875 14.8818 126.215 11.2412 130.909 11.2412C135.637 11.2412 138.877 14.8487 138.877 20.111V21.137H126.81C126.81 23.7516 128.595 25.5389 131.24 25.5389C133.092 25.5389 134.513 24.6453 135.009 23.1559L138.844 23.4869C138.315 26.7303 135.373 28.8485 131.438 28.8485ZM134.976 18.2245C134.976 16.0402 133.29 14.5508 130.876 14.5508C128.463 14.5508 126.81 16.0402 126.81 18.2245H134.976Z" fill="white"/>
</g>
<defs>
<clipPath id="clip0_425_46596">
<rect width="139" height="34" fill="white"/>
</clipPath>
</defs>
</svg>
