<svg width="130" height="130" viewBox="0 0 130 130" fill="none" xmlns="http://www.w3.org/2000/svg">
<path fill-rule="evenodd" clip-rule="evenodd" d="M4.08442 5.84595C13.0147 66.9712 67.8601 96.6616 125.116 103.412C126.099 103.53 126.806 104.423 126.688 105.406C126.571 106.389 125.678 107.096 124.695 106.978C65.835 100.042 9.71177 69.2003 0.532333 6.36241C0.387344 5.38376 1.06702 4.47307 2.0502 4.32808C3.02885 4.1831 3.93944 4.86276 4.08442 5.84595Z" fill="black"/>
<path fill-rule="evenodd" clip-rule="evenodd" d="M123.83 105.069C121.284 103.207 118.062 100.905 117.704 100.633C108.004 93.2664 99.966 84.7892 92.8889 74.8441C92.3135 74.0376 92.5039 72.914 93.3103 72.3385C94.1168 71.7631 95.2404 71.9535 95.8158 72.76C102.675 82.4061 110.468 90.6295 119.879 97.7746C120.427 98.1914 127.672 103.361 129.058 104.516C129.629 104.988 129.806 105.432 129.838 105.54C130.028 106.111 129.915 106.56 129.761 106.886C129.584 107.253 129.145 107.788 128.293 108.06C127.4 108.34 125.416 108.467 124.917 108.54C117.401 109.654 108.914 110.243 101.189 112.382C93.8222 114.421 87.1393 117.873 82.8532 124.792C82.3321 125.635 81.2221 125.893 80.3794 125.372C79.5366 124.851 79.2783 123.741 79.7993 122.898C84.5929 115.164 91.9964 111.199 100.229 108.92C107.909 106.795 116.318 106.152 123.83 105.069Z" fill="black"/>
</svg>
