<svg width="161" height="176" viewBox="0 0 161 176" fill="none" xmlns="http://www.w3.org/2000/svg">
<path fill-rule="evenodd" clip-rule="evenodd" d="M107.132 164.242C122.505 159.938 138.6 157.766 154.213 155.777C157.576 155.36 160.698 157.687 160.939 160.966C161.419 164.247 159.016 167.248 155.893 167.665C140.76 169.58 125.148 171.629 110.495 175.773C107.373 176.672 104.008 174.821 103.048 171.638C102.087 168.458 104.009 165.143 107.132 164.242Z" fill="black"/>
<path fill-rule="evenodd" clip-rule="evenodd" d="M60.5337 103.215C85.2749 78.023 113.139 56.0738 137.4 30.2059C139.561 27.79 143.405 27.6606 145.807 29.9159C148.209 32.1736 148.448 35.97 146.046 38.3859C121.785 64.3281 93.9214 86.3492 69.1802 111.616C66.7781 113.974 62.9358 114.007 60.5337 111.687C58.3719 109.37 58.1317 105.573 60.5337 103.215Z" fill="black"/>
<path fill-rule="evenodd" clip-rule="evenodd" d="M14.1704 6.3172C13.4497 20.7359 12.7305 35.1546 12.0099 49.5757C12.0099 52.8784 9.12603 55.4285 5.76315 55.268C2.40027 55.105 -0.00038221 52.2936 -0.00038221 48.9885C0.720235 34.5459 1.43945 20.1056 2.16006 5.66528C2.40027 2.36259 5.28321 -0.17075 8.64609 0.0090041C11.7688 0.188759 14.4106 3.01691 14.1704 6.3172Z" fill="black"/>
</svg>
