<svg width="444" height="217" viewBox="0 0 444 217" fill="none" xmlns="http://www.w3.org/2000/svg">
<g style="mix-blend-mode:screen">
<path d="M52.4984 0.799995V18.24C52.4984 19.5733 52.4184 20.96 52.2584 22.4C52.1518 23.84 51.9651 25.4133 51.6984 27.12C51.3784 28.8267 51.0584 30.5867 50.7384 32.4C50.4184 34.2133 50.0184 36.1067 49.5384 38.08C49.2718 39.04 49.0318 40 48.8184 40.96C48.5518 41.9733 48.2851 42.9867 48.0184 44H49.6184C49.7784 43.36 49.9918 42.4267 50.2584 41.2C50.5784 39.92 50.9251 38.64 51.2984 37.36C51.6718 36.08 52.0184 34.9867 52.3384 34.08C52.8718 32.3733 53.2718 31.0933 53.5384 30.24C53.8584 29.3333 54.1784 28.4533 54.4984 27.6C54.8184 26.7467 55.2984 25.5467 55.9384 24C56.2584 23.2 56.5784 22.4267 56.8984 21.68C57.2184 20.88 57.5384 20.1333 57.8584 19.44L66.4984 0.799995H85.2984L67.2984 38.08L86.8984 96H68.0984L55.5384 58.88L52.4984 63.36V96H33.6984V0.799995H52.4984ZM144.108 25.6C144.108 30.3467 143.121 34.4 141.148 37.76C140.241 39.36 139.121 40.7733 137.788 42C136.508 43.2267 134.908 44.2667 132.988 45.12C131.174 45.8667 129.228 46.3467 127.148 46.56V47.84C129.068 47.84 131.014 48.4533 132.988 49.68C134.854 50.9067 136.321 52.5333 137.388 54.56C137.654 55.0933 137.868 55.6267 138.028 56.16C138.241 56.6933 138.428 57.2267 138.588 57.76L148.108 96H129.308L118.188 55.76H112.108V96H93.3078V0.799995H121.308C123.868 0.799995 126.321 1.2 128.668 1.99999C131.068 2.74666 133.228 3.86667 135.148 5.36C137.068 6.90666 138.668 8.66666 139.948 10.64C141.281 12.6133 142.321 14.88 143.068 17.44C143.761 20.0533 144.108 22.7733 144.108 25.6ZM112.108 38.16H116.508C117.521 38.16 118.481 38.0267 119.388 37.76C120.348 37.4933 121.228 37.0667 122.028 36.48C123.414 35.36 124.401 33.76 124.988 31.68C125.201 30.7733 125.308 29.6533 125.308 28.32C125.308 25.28 124.534 22.88 122.988 21.12C121.441 19.3067 119.281 18.4 116.508 18.4H112.108V38.16ZM154.089 96V0.799995H172.889V96H154.089ZM210.047 29.36V23.76C210.047 18.5867 208.313 16 204.847 16C203.247 16 201.993 16.6133 201.087 17.84C200.18 19.0667 199.727 20.8267 199.727 23.12C199.727 23.8133 199.78 24.56 199.887 25.36C200.047 26.16 200.393 27.0133 200.927 27.92C201.353 28.72 201.993 29.68 202.847 30.8C203.7 31.8667 204.767 33.0133 206.047 34.24C206.687 34.9333 207.407 35.6533 208.207 36.4C208.953 37.2 209.807 38.0267 210.767 38.88C213.647 41.4933 216.287 44.0533 218.687 46.56C221.14 49.0667 223.14 51.28 224.687 53.2C226.233 55.2267 227.46 57.1733 228.367 59.04C229.273 60.9067 229.94 62.8267 230.367 64.8C230.58 65.8133 230.713 66.8533 230.767 67.92C230.873 68.9867 230.927 70.1067 230.927 71.28C230.927 74.48 230.58 77.44 229.887 80.16C229.193 82.8267 228.127 85.2267 226.687 87.36C225.353 89.3867 223.593 91.12 221.407 92.56C219.273 94 216.927 95.04 214.367 95.68C211.54 96.4267 208.5 96.8 205.247 96.8C198.687 96.8 193.353 95.3867 189.247 92.56C185.193 89.7867 182.5 85.6533 181.167 80.16C180.473 77.4933 180.127 74.4267 180.127 70.96V62.56H197.727V71.04C197.727 74.1333 198.367 76.5333 199.647 78.24C200.82 79.9467 202.633 80.8 205.087 80.8C205.94 80.8 206.767 80.6933 207.567 80.48C208.367 80.2133 209.033 79.8133 209.567 79.28C210.047 78.8 210.5 78.2133 210.927 77.52C211.353 76.7733 211.673 75.8667 211.887 74.8C211.94 74.32 211.993 73.8133 212.047 73.28C212.1 72.6933 212.127 72.1067 212.127 71.52C212.127 70.4 212.047 69.44 211.887 68.64C211.727 67.7867 211.407 66.88 210.927 65.92C210.393 64.96 209.647 63.9733 208.687 62.96C207.78 61.9467 206.713 60.8267 205.487 59.6C204.793 58.96 204.02 58.2667 203.167 57.52C202.367 56.7733 201.487 55.9733 200.527 55.12C197.54 52.4533 194.927 50.0267 192.687 47.84C190.5 45.6 188.633 43.44 187.087 41.36C185.54 39.3333 184.313 37.3867 183.407 35.52C182.553 33.6 181.913 31.6533 181.487 29.68C181.273 28.72 181.113 27.7067 181.007 26.64C180.953 25.5733 180.927 24.48 180.927 23.36C180.927 20.4267 181.22 17.7067 181.807 15.2C182.447 12.64 183.433 10.4 184.767 8.47999C187.38 4.74666 191.167 2.24 196.127 0.959993C198.58 0.319995 201.38 -3.8147e-06 204.527 -3.8147e-06C210.5 -3.8147e-06 215.407 1.2 219.247 3.59999C220.527 4.39999 221.887 5.65333 223.327 7.36C224.767 9.06666 225.887 11.3867 226.687 14.32C227.327 16.72 227.647 19.3867 227.647 22.32V29.36H210.047ZM238.152 96V0.799995H256.952V34.16H270.952V0.799995H289.752V96H270.952V51.76H256.952V96H238.152ZM318.123 72.72V96H299.323V0.799995H321.323L328.443 26.4C329.083 28.5867 329.75 31.04 330.443 33.76C331.137 36.4267 331.803 39.12 332.443 41.84C333.083 44.5067 333.617 46.88 334.043 48.96C335.003 53.3867 335.857 57.4933 336.603 61.28C337.35 65.0667 338.097 68.96 338.843 72.96C339.163 74.88 339.457 76.7467 339.723 78.56C339.99 80.4267 340.257 82.24 340.523 84H342.123C341.697 81.1733 341.297 78.64 340.923 76.4C340.55 74.1067 340.177 71.76 339.803 69.36C339.43 66.96 339.03 64.1067 338.603 60.8C338.23 58.4533 337.857 55.8133 337.483 52.88C337.11 49.8933 336.763 46.96 336.443 44.08C336.123 41.1467 335.91 38.56 335.803 36.32C335.643 34.3467 335.51 32.4267 335.403 30.56C335.35 28.64 335.323 26.8 335.323 25.04V0.799995H354.123V96H333.323L325.963 71.28C325.43 69.5733 324.817 67.44 324.123 64.88C323.43 62.32 322.683 59.6 321.883 56.72C321.137 53.7867 320.443 50.9067 319.803 48.08C318.897 44.1867 317.99 40.1867 317.083 36.08C316.177 31.92 315.377 27.84 314.683 23.84C314.31 21.92 313.963 20.0267 313.643 18.16C313.323 16.2933 313.03 14.5067 312.763 12.8H311.163C311.697 16.2667 312.283 19.9467 312.923 23.84C313.563 27.68 314.203 31.76 314.843 36.08C315.377 40.24 315.91 44.4533 316.443 48.72C316.977 52.9333 317.403 57.0667 317.723 61.12C317.83 63.1467 317.91 65.1467 317.963 67.12C318.07 69.04 318.123 70.9067 318.123 72.72ZM359.698 96L374.578 0.799995H401.458L416.338 96H397.538L394.738 74.16H381.298L378.498 96H359.698ZM383.538 56.56H392.498L389.298 26.72C389.192 25.4933 389.112 24.4 389.058 23.44C389.005 22.4267 388.952 21.36 388.898 20.24C388.845 19.0667 388.818 17.6533 388.818 16H387.218V18.32C387.218 18.6933 387.218 19.0667 387.218 19.44C387.165 19.8667 387.138 20.2667 387.138 20.64C387.138 21.1733 387.112 21.7333 387.058 22.32C387.005 22.8533 386.978 23.3867 386.978 23.92C386.978 24.9867 386.898 25.92 386.738 26.72L383.538 56.56ZM19.3172 168.56C19.3172 171.813 19.7172 174.96 20.5172 178C21.3705 181.04 22.6772 183.92 24.4372 186.64C25.9839 189.04 27.9039 191.147 30.1972 192.96C32.5439 194.773 35.1039 196.107 37.8772 196.96C40.7572 197.92 43.7705 198.4 46.9172 198.4C52.0905 198.4 56.6505 197.2 60.5972 194.8C64.4905 192.4 67.4772 189.093 69.5572 184.88C70.0372 183.867 70.4639 182.8 70.8372 181.68C71.2105 180.507 71.5305 179.307 71.7972 178.08H90.9972C90.5705 182.72 89.5039 186.933 87.7972 190.72C86.1439 194.507 84.0105 197.973 81.3972 201.12C75.9039 207.733 68.9172 212.32 60.4372 214.88C56.1705 216.16 51.7172 216.8 47.0772 216.8C42.4372 216.8 37.7439 216.08 32.9972 214.64C28.3039 213.2 23.7439 210.827 19.3172 207.52C15.4239 204.64 12.0639 201.147 9.23719 197.04C6.41052 192.88 4.27719 188.453 2.83719 183.76C2.09052 181.36 1.50385 178.88 1.07719 176.32C0.703854 173.76 0.517188 171.12 0.517188 168.4C0.517188 162.853 1.29052 157.68 2.83719 152.88C4.43719 148.027 6.59719 143.627 9.31719 139.68C12.3572 135.36 15.9039 131.76 19.9572 128.88C24.0105 125.947 28.0639 123.787 32.1172 122.4C34.4639 121.653 36.8905 121.067 39.3972 120.64C41.9039 120.213 44.4639 120 47.0772 120C56.2505 120 64.5705 122.427 72.0372 127.28C75.6105 129.627 78.7572 132.453 81.4772 135.76C84.1972 139.013 86.3572 142.507 87.9572 146.24C89.5572 150.08 90.5705 154.24 90.9972 158.72H71.7972C71.3705 156.32 70.5972 154.053 69.4772 151.92C68.4105 149.733 67.1572 147.84 65.7172 146.24C64.2239 144.64 62.5172 143.253 60.5972 142.08C58.6772 140.853 56.5705 139.92 54.2772 139.28C51.8772 138.693 49.4239 138.4 46.9172 138.4C43.5039 138.4 40.3839 138.933 37.5572 140C34.7305 141.013 32.3039 142.293 30.2772 143.84C25.6372 147.52 22.4372 152.427 20.6772 158.56C20.1972 160.107 19.8505 161.733 19.6372 163.44C19.4239 165.093 19.3172 166.8 19.3172 168.56ZM138.23 216H98.2297V120.8H137.83V138.4H117.03V156.56H136.23V174.16H117.03V198.4H138.23V216ZM145.417 216V120.8H164.217V198.4H183.817V216H145.417ZM188.758 192.48V120.8H207.558V192.48C207.558 193.867 207.984 195.067 208.838 196.08C209.158 196.56 209.558 196.987 210.038 197.36C210.571 197.68 211.184 197.92 211.878 198.08C212.518 198.293 213.158 198.4 213.798 198.4C215.504 198.4 216.944 197.893 218.118 196.88C219.344 195.813 219.958 194.347 219.958 192.48V120.8H238.758V192.48C238.758 198.453 237.318 203.413 234.438 207.36C232.944 209.387 231.211 211.093 229.238 212.48C227.264 213.813 224.944 214.88 222.278 215.68C219.718 216.427 216.891 216.8 213.798 216.8C210.544 216.8 207.638 216.427 205.078 215.68C202.571 214.88 200.331 213.813 198.358 212.48C194.198 209.653 191.371 205.707 189.878 200.64C189.131 198.133 188.758 195.413 188.758 192.48ZM247.527 120.8H275.527C282.62 120.8 288.193 123.44 292.247 128.72C294.167 131.227 295.66 134.32 296.727 138C297.793 141.68 298.327 145.787 298.327 150.32C298.327 153.84 298.007 157.147 297.367 160.24C296.727 163.28 295.713 166.053 294.327 168.56C292.993 170.96 291.42 172.987 289.607 174.64C287.847 176.293 285.74 177.573 283.287 178.48C280.94 179.333 278.353 179.76 275.527 179.76H266.327V216H247.527V120.8ZM266.327 162.16H270.727C271.687 162.16 272.647 162.027 273.607 161.76C274.567 161.44 275.447 160.88 276.247 160.08C276.993 159.333 277.58 158.533 278.007 157.68C278.487 156.827 278.887 155.707 279.207 154.32C279.313 153.733 279.393 153.12 279.447 152.48C279.5 151.787 279.527 151.067 279.527 150.32C279.527 148.933 279.393 147.627 279.127 146.4C278.913 145.12 278.54 143.973 278.007 142.96C277.473 142 276.86 141.2 276.167 140.56C275.527 139.867 274.727 139.307 273.767 138.88C272.913 138.56 271.9 138.4 270.727 138.4H266.327V162.16ZM304.695 192.48V120.8H323.495V192.48C323.495 193.867 323.922 195.067 324.775 196.08C325.095 196.56 325.495 196.987 325.975 197.36C326.509 197.68 327.122 197.92 327.815 198.08C328.455 198.293 329.095 198.4 329.735 198.4C331.442 198.4 332.882 197.893 334.055 196.88C335.282 195.813 335.895 194.347 335.895 192.48V120.8H354.695V192.48C354.695 198.453 353.255 203.413 350.375 207.36C348.882 209.387 347.149 211.093 345.175 212.48C343.202 213.813 340.882 214.88 338.215 215.68C335.655 216.427 332.829 216.8 329.735 216.8C326.482 216.8 323.575 216.427 321.015 215.68C318.509 214.88 316.269 213.813 314.295 212.48C310.135 209.653 307.309 205.707 305.815 200.64C305.069 198.133 304.695 195.413 304.695 192.48ZM414.264 145.6C414.264 150.347 413.277 154.4 411.304 157.76C410.397 159.36 409.277 160.773 407.944 162C406.664 163.227 405.064 164.267 403.144 165.12C401.331 165.867 399.384 166.347 397.304 166.56V167.84C399.224 167.84 401.171 168.453 403.144 169.68C405.011 170.907 406.477 172.533 407.544 174.56C407.811 175.093 408.024 175.627 408.184 176.16C408.397 176.693 408.584 177.227 408.744 177.76L418.264 216H399.464L388.344 175.76H382.264V216H363.464V120.8H391.464C394.024 120.8 396.477 121.2 398.824 122C401.224 122.747 403.384 123.867 405.304 125.36C407.224 126.907 408.824 128.667 410.104 130.64C411.437 132.613 412.477 134.88 413.224 137.44C413.917 140.053 414.264 142.773 414.264 145.6ZM382.264 158.16H386.664C387.677 158.16 388.637 158.027 389.544 157.76C390.504 157.493 391.384 157.067 392.184 156.48C393.571 155.36 394.557 153.76 395.144 151.68C395.357 150.773 395.464 149.653 395.464 148.32C395.464 145.28 394.691 142.88 393.144 141.12C391.597 139.307 389.437 138.4 386.664 138.4H382.264V158.16ZM424.245 216V120.8H443.045V216H424.245Z" fill="#FFFDFA"/>
</g>
</svg>
