<svg xmlns="http://www.w3.org/2000/svg" width="134.022" height="58.969" viewBox="0 0 134.022 58.969">
    <defs>
        <style>
            .cls-1{fill:#552976}.cls-2{fill:#fff}.cls-3{fill:#0fbfdd}.cls-4{fill:#ec316c}.cls-5{fill:#ffcc0c}
        </style>
    </defs>
    <g id="Group_4" data-name="Group 4" transform="translate(-33.708 -183.701)">
        <path id="Path_10" d="M29.484 0A29.484 29.484 0 1 1 0 29.484 29.484 29.484 0 0 1 29.484 0z" class="cls-1" data-name="Path 10" transform="translate(33.708 183.701)"/>
        <g id="Group_2" data-name="Group 2" transform="translate(55.008 200.249)">
            <g id="Group_1" data-name="Group 1">
                <path id="Path_1" d="M128.039 249.49a2.259 2.259 0 0 1 1.657.691 2.293 2.293 0 0 1 .671 1.657 2.358 2.358 0 0 1-2.328 2.328h-.02l-5.005-.039v14.592a2.195 2.195 0 0 1-.691 1.637 2.26 2.26 0 0 1-1.657.691 2.359 2.359 0 0 1-2.328-2.328V251.8a2.219 2.219 0 0 1 .691-1.657 2.2 2.2 0 0 1 1.637-.691h.02z" class="cls-2" data-name="Path 1" transform="translate(-118.338 -249.45)"/>
            </g>
            <path id="Path_2" d="M123.266 345.772a2.338 2.338 0 0 1-2.338 2.338 2.338 2.338 0 0 1-2.338-2.338 2.338 2.338 0 0 1 2.338-2.338 2.338 2.338 0 0 1 2.338 2.338z" class="cls-3" data-name="Path 2" transform="translate(-118.527 -319.78)"/>
            <path id="Path_3" d="M179.119 251.867a2.338 2.338 0 0 1-2.357 2.338h-.04a2.338 2.338 0 0 1-2.318-2.338 2.337 2.337 0 0 1 2.357-2.338h.04a2.338 2.338 0 0 1 2.318 2.338z" class="cls-4" data-name="Path 3" transform="translate(-160.293 -249.509)"/>
            <path id="Path_4" d="M151.72 298.834a2.338 2.338 0 0 1-2.357 2.338h-.04a2.338 2.338 0 0 1-2.323-2.338 2.338 2.338 0 0 1 2.357-2.338h.04a2.337 2.337 0 0 1 2.323 2.338z" class="cls-5" data-name="Path 4" transform="translate(-139.79 -284.655)"/>
        </g>
        <g id="Group_3" data-name="Group 3" transform="translate(104.318 205.048)">
            <path id="Path_5" d="M323.9 268.542a1.31 1.31 0 0 1 .961.4 1.331 1.331 0 0 1 .389.961 1.368 1.368 0 0 1-1.35 1.35h-.011l-6.911-.023v4.153h4.989a1.33 1.33 0 0 1 .961.389 1.354 1.354 0 0 1 0 1.922 1.33 1.33 0 0 1-.961.389h-4.989v5.517a1.273 1.273 0 0 1-.4.95 1.309 1.309 0 0 1-.961.4 1.368 1.368 0 0 1-1.35-1.35v-13.719a1.287 1.287 0 0 1 .4-.961 1.274 1.274 0 0 1 .95-.4h.011z" class="cls-1" data-name="Path 5" transform="translate(-314.262 -268.519)"/>
            <path id="Path_6" d="M366.871 268.61a1.368 1.368 0 0 1 1.35 1.35v12.357h6.052a1.311 1.311 0 0 1 .961.4 1.353 1.353 0 0 1 0 1.9 1.311 1.311 0 0 1-.961.4h-7.4a1.368 1.368 0 0 1-1.35-1.35V269.96a1.367 1.367 0 0 1 1.35-1.35z" class="cls-1" data-name="Path 6" transform="translate(-352.62 -268.587)"/>
            <path id="Path_7" d="M422.111 268.61a1.328 1.328 0 0 1 1.327 1.327v9.222a5.852 5.852 0 1 1-11.7 0v-9.222a1.327 1.327 0 0 1 2.654 0v9.222a3.2 3.2 0 1 0 6.4 0v-9.222a1.328 1.328 0 0 1 1.327-1.327z" class="cls-1" data-name="Path 7" transform="translate(-387.202 -268.587)"/>
            <path id="Path_8" d="M469.7 269.972a1.367 1.367 0 0 1 1.361-1.362 1.274 1.274 0 0 1 .95.4 1.312 1.312 0 0 1 .4.961v10.069a4.961 4.961 0 0 1-4.977 4.977 1.368 1.368 0 0 1-1.35-1.35 1.311 1.311 0 0 1 .4-.961 1.273 1.273 0 0 1 .95-.4 2.266 2.266 0 0 0 2.265-2.265z" class="cls-1" data-name="Path 8" transform="translate(-427.877 -268.587)"/>
            <path id="Path_9" d="M509.152 284.949a8.223 8.223 0 1 1 5.812-2.414 7.885 7.885 0 0 1-5.812 2.414zm0-13.729a5.507 5.507 0 1 0 3.9 1.613 5.3 5.3 0 0 0-3.9-1.614z" class="cls-1" data-name="Path 9" transform="translate(-453.954 -268.519)"/>
        </g>
    </g>
</svg>
