<svg width="1454" height="290" viewBox="0 0 1454 290" fill="none" xmlns="http://www.w3.org/2000/svg">
<path d="M280.3 0.5H0.299988V289.8H280.3V0.5Z" fill="white"/>
<path d="M1453.3 0.5H280.3V289.8H1453.3V0.5Z" fill="#1B4584"/>
<path fill-rule="evenodd" clip-rule="evenodd" d="M314.9 228.7V64.1L368.8 63.9V119.4H419.9V63.9L473.9 63.7L474 228.7H419.9V164.8H368.9L369 228.7H314.9Z" fill="white"/>
<path fill-rule="evenodd" clip-rule="evenodd" d="M183.8 189.4L96.2 189.7L96 101.1L183.8 101V189.4Z" fill="#1B4584"/>
<path fill-rule="evenodd" clip-rule="evenodd" d="M154.8 289.7H231.3H280.3V236.9V156.8H231.2L231.3 237L154.8 237.2V289.7Z" fill="#E1262A"/>
<path fill-rule="evenodd" clip-rule="evenodd" d="M154.8 0.5H231.3H280.3V53.3V133.4H231.2L231.3 53.1L154.8 53V0.5Z" fill="#E1262A"/>
<path fill-rule="evenodd" clip-rule="evenodd" d="M125.8 289.7H49.2H0.300011L0.200012 236.9L0.300011 156.8H49.4L49.2 237L125.8 237.2V289.7Z" fill="#E1262A"/>
<path fill-rule="evenodd" clip-rule="evenodd" d="M125.8 0.5H49.2H0.300011L0.200012 53.3L0.300011 133.4H49.4L49.2 53.1L125.8 53V0.5Z" fill="#E1262A"/>
<path fill-rule="evenodd" clip-rule="evenodd" d="M558.7 102.2L568.9 102.1C597.7 102.1 609 111.2 609.1 145.5C609.1 176.5 595.4 190 570.1 190H558.7V102.2V102.2ZM575.7 228.4C628.5 228.4 663 204.5 663 142.5C662.9 88.3 630 63.5 576.9 63.5L504.5 63.6L504.7 228.5L575.7 228.4Z" fill="white"/>
<path fill-rule="evenodd" clip-rule="evenodd" d="M750.7 158.9C767.8 158.9 780.4 159.8 780.4 174.4C780.4 186.5 770.3 189.5 756.9 189.5H733.4V158.9H750.7ZM752.3 101.3C763.7 101.3 774.2 101.6 774.2 114.4C774.2 124.1 766.6 128.8 756 128.8L733.3 128.9V101.3H752.3V101.3ZM759.8 227.8C802.6 227.8 830.8 214.9 830.7 178C830.7 160.1 821 144.8 803.3 140.2C813.7 133.6 824.7 121.3 824.7 104.3C824.7 71.5 795 62.8 758 62.9H679.3L679.4 227.8H759.8V227.8Z" fill="white"/>
<path fill-rule="evenodd" clip-rule="evenodd" d="M878.9 135.9V75H917.6V83.9H892.6V99.4H916V108.3H892.6V135.9H878.9Z" fill="white"/>
<path d="M955.6 75H941.9V135.9H955.6V75Z" fill="white"/>
<path fill-rule="evenodd" clip-rule="evenodd" d="M1016.2 75H1029.8V135.9H1015.6L1004.9 114.2C1001.3 107 998.3 99.6 995.2 90H995C995.5 95 996.1 101.2 996.5 107.4C996.9 113.5 997.2 119.6 997.2 124.5V136H983.5V75H997.7L1008.3 97.2C1011.8 104.3 1014.8 111.5 1018.1 121.4H1018.3C1017.8 115.9 1017.3 110 1017 104.1C1016.6 98.2 1016.3 92.4 1016.3 87V75H1016.2Z" fill="white"/>
<path fill-rule="evenodd" clip-rule="evenodd" d="M1051.9 135.9L1069.4 75H1087.8L1104.4 135.9H1089.8L1086.2 120.4H1070.2L1066.7 135.9H1051.9ZM1072.3 111.5H1084L1080.3 94.2C1079.6 91.4 1079.3 88.6 1078.9 85.8C1078.8 84.4 1078.6 83 1078.4 81.8H1078.2C1078 83.1 1077.8 84.4 1077.7 85.8C1077.3 88.6 1077 91.4 1076.3 94.2L1072.3 111.5Z" fill="white"/>
<path fill-rule="evenodd" clip-rule="evenodd" d="M1159.2 75H1172.9V135.9H1158.7L1148.1 114.2C1144.5 107 1141.5 99.6 1138.3 90H1138.1C1138.6 95 1139.2 101.2 1139.6 107.4C1140 113.5 1140.3 119.6 1140.3 124.5V136H1126.6V75H1140.8L1151.4 97.2C1154.9 104.3 1157.8 111.5 1161.2 121.4H1161.4C1160.9 115.9 1160.4 110 1160 104.1C1159.6 98.2 1159.3 92.4 1159.3 87V75H1159.2Z" fill="white"/>
<path fill-rule="evenodd" clip-rule="evenodd" d="M1244 114.2C1243.9 115.3 1243.8 116.6 1243.7 117.7C1243 128.8 1238.5 137.4 1223.3 137.4C1200.9 137.4 1199.4 125.5 1199.4 109.3V100.6C1200 85.1 1201.5 73.5 1223.3 73.5C1235.5 73.7 1242.3 78.9 1243.3 89.3C1243.5 90.8 1243.7 92.4 1243.6 93.9H1230.2C1229.6 90 1230.1 82.7 1223.4 82.7C1212.7 82.7 1213.6 93.3 1213.6 98V114.9C1213.6 120 1214.1 128.2 1223.4 128.2C1230.9 128.2 1230.1 118.1 1230.3 114.2H1244V114.2Z" fill="white"/>
<path d="M1283.2 75H1269.6V135.9H1283.2V75Z" fill="white"/>
<path fill-rule="evenodd" clip-rule="evenodd" d="M1305.5 135.9L1322.9 75H1341.3L1357.9 135.9H1343.3L1339.7 120.4H1323.7L1320.1 135.9H1305.5ZM1325.8 111.5H1337.5L1333.8 94.2C1333.2 91.4 1332.9 88.6 1332.5 85.8C1332.4 84.4 1332.2 83 1332 81.8H1331.8C1331.6 83.1 1331.4 84.4 1331.3 85.8C1330.9 88.6 1330.6 91.4 1329.9 94.2L1325.8 111.5Z" fill="white"/>
<path fill-rule="evenodd" clip-rule="evenodd" d="M1380 135.9V75H1393.7V127H1419V135.9H1380Z" fill="white"/>
<path fill-rule="evenodd" clip-rule="evenodd" d="M906.3 173.3C906.4 167.8 905.8 162.5 898.3 162.5C893.7 162.5 890.7 164 890.7 168.2C890.7 172.8 894.3 174.6 898.5 176.9C903 179.3 911.3 183.8 915.1 186.9C919.8 190.7 921.2 194.4 921.2 199.6C921.2 211.2 912 217.2 898.7 217.2C882.3 217.2 876.5 209.5 876.5 198.7V194.2H890.1V197.8C889.8 203.7 892 208 898.7 208C904.5 208 907.2 205.5 907.2 200.8C907.2 197.2 905.2 194.8 901.7 192.8C894.6 188.2 885.7 184.8 880.2 178.8C877.9 176 876.7 172.7 876.7 169.4C876.7 159 883.7 153.4 898.2 153.4C919.9 153.4 919.3 167.4 919.4 173.4H906.3V173.3Z" fill="white"/>
<path fill-rule="evenodd" clip-rule="evenodd" d="M951.7 215.7V154.7H990.1V163.7H965.4V179H988.2V188H965.4V206.7H990.1V215.7H951.7Z" fill="white"/>
<path fill-rule="evenodd" clip-rule="evenodd" d="M1033.8 189.4V215.7H1020.2V154.8H1046C1057.8 154.8 1066.8 158.2 1066.8 169.4C1066.8 176.1 1064.7 183.1 1055.6 184.1V184.3C1063.7 185.2 1066.1 189.5 1066.1 195.4C1066.1 197.9 1065.7 212.8 1069 214.7V215.9H1054C1052.4 212 1052.7 204.5 1052.6 200.4C1052.5 196.7 1052.6 191.5 1047.9 190.4C1044.2 189.5 1040.2 189.6 1036.3 189.6H1033.8V189.4ZM1033.8 180.5H1044.6C1049.1 180.3 1052.6 177.8 1052.6 171.7C1052.6 164.9 1049.1 163.8 1043.9 163.7H1033.8V180.5Z" fill="white"/>
<path fill-rule="evenodd" clip-rule="evenodd" d="M1130.4 154.7H1145L1129.2 215.6H1111L1094.8 154.7H1109.4L1118 193.8C1118.7 197.2 1119.2 200.7 1119.6 204.2C1119.8 205.8 1120.2 207.6 1120.2 209.2H1120.4C1120.4 207.5 1120.8 205.8 1121 204.2C1121.4 200.7 1121.9 197.2 1122.7 193.8L1130.4 154.7Z" fill="white"/>
<path d="M1186.8 154.7H1173.2V215.6H1186.8V154.7Z" fill="white"/>
<path fill-rule="evenodd" clip-rule="evenodd" d="M1262.9 194C1262.8 195.2 1262.7 196.4 1262.7 197.5C1262 208.6 1257.5 217.2 1242.3 217.2C1219.9 217.2 1218.4 205.3 1218.4 189.1V180.4C1219 164.9 1220.5 153.4 1242.3 153.4C1254.5 153.5 1261.3 158.7 1262.3 169.1C1262.5 170.6 1262.7 172.2 1262.6 173.7H1249.2C1248.6 169.8 1249.1 162.5 1242.3 162.5C1231.6 162.5 1232.5 173.1 1232.5 177.9V194.8C1232.5 199.8 1233 208 1242.3 208C1249.8 208 1249 197.9 1249.3 194H1262.9Z" fill="white"/>
<path fill-rule="evenodd" clip-rule="evenodd" d="M1293 215.7V154.7H1331.4V163.7H1306.6V179H1329.5V188H1306.6V206.7H1331.4V215.7H1293Z" fill="white"/>
<path fill-rule="evenodd" clip-rule="evenodd" d="M1389.5 173.3C1389.6 167.8 1389 162.5 1381.5 162.5C1376.9 162.5 1374 164 1374 168.2C1374 172.8 1377.5 174.6 1381.8 176.9C1386.2 179.3 1394.6 183.8 1398.4 186.9C1403.1 190.7 1404.6 194.4 1404.6 199.6C1404.6 211.2 1395.4 217.2 1382 217.2C1365.6 217.2 1359.8 209.5 1359.8 198.7V194.2H1373.4V197.8C1373.1 203.7 1375.2 208 1382 208C1387.8 208 1390.5 205.5 1390.5 200.8C1390.5 197.2 1388.5 194.8 1385 192.8C1377.9 188.2 1369.1 184.8 1363.4 178.8C1361.2 176 1359.9 172.7 1359.9 169.4C1359.9 159 1367 153.4 1381.4 153.4C1403.1 153.4 1402.5 167.4 1402.6 173.4H1389.5V173.3Z" fill="white"/>
</svg>
