<svg width="132" height="14" viewBox="0 0 132 14" fill="none" xmlns="http://www.w3.org/2000/svg">
<g clip-path="url(#clip0_108_3)">
<path d="M8.63868 13.9669C8.27273 13.9669 8.01023 13.8322 7.85169 13.5637L1.77422 3.69719V13.1982C1.77422 13.4052 1.69779 13.5848 1.54524 13.7378C1.39271 13.8909 1.21262 13.9669 1.00514 13.9669C0.79766 13.9669 0.620827 13.8909 0.474743 13.7378C0.328125 13.5848 0.254883 13.4052 0.254883 13.1982V1.06153C0.254883 0.548493 0.523243 0.291992 1.06016 0.291992C1.41412 0.291992 1.68261 0.445042 1.86589 0.749993L7.92506 10.58V1.06153C7.92506 0.854492 8.00104 0.674026 8.15358 0.521026C8.30612 0.368876 8.48613 0.291992 8.69369 0.291992C8.90118 0.291992 9.07799 0.368876 9.22454 0.521026C9.37116 0.674026 9.44441 0.854492 9.44441 1.06153V13.1982C9.44441 13.7104 9.17559 13.9669 8.63868 13.9669Z" fill="black"/>
<path d="M33.772 12.6485C32.942 13.528 31.7892 13.9669 30.3123 13.9669C28.8113 13.9669 27.6583 13.528 26.8527 12.6485C26.1083 11.8552 25.7363 10.7943 25.7363 9.46399V1.11653C25.7363 0.884692 25.8157 0.68951 25.9742 0.53021C26.1327 0.372526 26.3278 0.291992 26.56 0.291992C26.7793 0.291992 26.9685 0.372526 27.1275 0.53021C27.286 0.68951 27.3652 0.884692 27.3652 1.11653V9.42754C27.3652 10.3309 27.5852 11.0436 28.0243 11.5684C28.5122 12.1905 29.2753 12.502 30.3123 12.502C31.3252 12.502 32.0818 12.1905 32.5825 11.5684C33.0218 11.0436 33.2417 10.3309 33.2417 9.42754V1.11653C33.2417 0.896543 33.3205 0.704159 33.4793 0.539393C33.6378 0.374342 33.833 0.291992 34.0652 0.291992C34.2847 0.291992 34.477 0.374342 34.642 0.539393C34.8065 0.704159 34.8888 0.896543 34.8888 1.11653V9.46399C34.8888 10.7943 34.5165 11.8552 33.772 12.6485Z" fill="black"/>
<path d="M58.0643 3.95391C58.0643 3.39239 57.8691 2.93424 57.4784 2.58054C57.0148 2.19036 56.3373 1.99524 55.4464 1.99524H52.8108V6.77273H55.4281C56.3071 6.77273 56.9781 6.56569 57.4418 6.14974C57.8568 5.78424 58.0643 5.31419 58.0643 4.74089V3.95391ZM59.8401 13.1801C59.8401 13.3999 59.7513 13.585 59.5744 13.738C59.3976 13.8911 59.1993 13.9671 58.9794 13.9671C58.6743 13.9671 58.4366 13.8086 58.2658 13.4916C57.8631 12.6854 57.4143 11.8499 56.9199 10.9832C56.4258 10.1166 55.8798 9.21973 55.2819 8.29173H52.8108V13.1434C52.8108 13.3752 52.7311 13.5704 52.5726 13.7287C52.4141 13.8874 52.2184 13.9671 51.9868 13.9671C51.7549 13.9671 51.5594 13.8874 51.4009 13.7287C51.2424 13.5704 51.1631 13.3752 51.1631 13.1434V1.28158C51.1631 1.06173 51.2424 0.869214 51.4009 0.704364C51.5594 0.539598 51.7549 0.457031 51.9868 0.457031H55.4648C56.8806 0.457031 57.9603 0.793365 58.7049 1.46471C59.3761 2.06204 59.7119 2.89206 59.7119 3.95391V4.74089C59.7119 5.51043 59.4979 6.18086 59.0711 6.75456C58.5951 7.40124 57.9176 7.82253 57.0391 8.01771C57.6003 8.93288 58.1069 9.78406 58.5584 10.5709C59.0101 11.3589 59.4068 12.099 59.7486 12.7953C59.8094 12.9419 59.8401 13.0703 59.8401 13.1801Z" fill="black"/>
<path d="M83.0146 5.23534C83.0146 2.95234 82.0381 1.81184 80.0859 1.81184C78.1336 1.81184 77.1571 2.95234 77.1571 5.23534V9.02434C77.1571 11.3184 78.1336 12.4652 80.0859 12.4652C82.0381 12.4652 83.0146 11.3184 83.0146 9.02434V5.23534ZM83.6559 12.4287C82.8626 13.4547 81.6726 13.9669 80.0859 13.9669C78.4873 13.9669 77.2971 13.4547 76.5166 12.4287C75.8451 11.5749 75.5098 10.4399 75.5098 9.02434V5.23534C75.5098 3.81901 75.8451 2.68483 76.5166 1.83001C77.2971 0.805009 78.4873 0.291992 80.0859 0.291992C81.6726 0.291992 82.8626 0.805009 83.6559 1.83001C84.3146 2.69688 84.6444 3.83183 84.6444 5.23534V9.02434C84.6444 10.4399 84.3146 11.5749 83.6559 12.4287Z" fill="black"/>
<path d="M108.614 13.5729C108.461 13.7259 108.275 13.8019 108.056 13.8019H101.722C101.503 13.8019 101.317 13.7259 101.164 13.5729C101.012 13.4208 100.935 13.2348 100.935 13.0151V1.11652C100.935 0.896541 101.014 0.704158 101.173 0.539392C101.331 0.374341 101.526 0.291992 101.759 0.291992C101.991 0.291992 102.186 0.374341 102.345 0.539392C102.503 0.704158 102.583 0.896541 102.583 1.11652V12.227H108.056C108.275 12.227 108.461 12.3041 108.614 12.4562C108.766 12.6092 108.843 12.7951 108.843 13.0151C108.843 13.2348 108.766 13.4208 108.614 13.5729Z" fill="black"/>
<path d="M131.762 13.5731C131.603 13.7261 131.42 13.8021 131.212 13.8021H124.843C124.623 13.8021 124.437 13.7261 124.284 13.5731C124.132 13.421 124.055 13.235 124.055 13.0153V1.24487C124.055 1.03692 124.132 0.854698 124.284 0.695247C124.437 0.53673 124.623 0.457031 124.843 0.457031H130.939C131.157 0.457031 131.343 0.53673 131.496 0.695247C131.648 0.854698 131.725 1.03692 131.725 1.24487C131.725 1.46472 131.648 1.64975 131.496 1.80275C131.343 1.95573 131.157 2.03192 130.939 2.03192H125.703V6.36973H130.48C130.687 6.36973 130.865 6.44657 131.012 6.5987C131.157 6.7517 131.231 6.93223 131.231 7.1392C131.231 7.34623 131.157 7.52573 131.012 7.67872C130.865 7.83172 130.687 7.90775 130.48 7.90775H125.703V12.2272H131.212C131.432 12.2272 131.618 12.3043 131.771 12.4564C131.923 12.6094 132 12.7953 132 13.0153C132 13.235 131.921 13.421 131.762 13.5731Z" fill="black"/>
</g>
<defs>
<clipPath id="clip0_108_3">
<rect width="132" height="14" fill="white"/>
</clipPath>
</defs>
</svg>
