<svg width="341" height="62" viewBox="0 0 341 62" fill="none" xmlns="http://www.w3.org/2000/svg">
<path d="M327.308 20.679C326.022 15.6869 323.36 11.1558 319.627 7.60073C315.894 4.04562 311.238 1.60903 306.189 0.567866C301.14 -0.473302 295.9 -0.077294 291.065 1.71089C286.23 3.49907 281.993 6.60771 278.836 10.6835C275.68 14.7594 273.73 19.6389 273.208 24.7677C272.686 29.8965 273.613 35.0688 275.885 39.6968C278.156 44.3249 281.679 48.2231 286.055 50.9484C290.431 53.6738 295.484 55.117 300.639 55.114H322.439C326.671 55.1145 330.761 53.587 333.956 50.8124C337.151 48.0378 339.237 44.2028 339.83 40.0127C340.423 35.8227 339.483 31.5595 337.183 28.0072C334.883 24.455 331.378 21.8527 327.312 20.679H327.308ZM322.435 50.146H300.635C296.276 50.1476 292.009 48.888 288.35 46.5192C284.69 44.1503 281.794 40.7734 280.01 36.7955C278.227 32.8177 277.632 28.4088 278.298 24.1006C278.964 19.7924 280.862 15.7689 283.763 12.5151C286.665 9.26142 290.445 6.91649 294.649 5.76312C298.853 4.60976 303.301 4.69721 307.457 6.01494C311.612 7.33267 315.298 9.8244 318.069 13.1896C320.84 16.5549 322.578 20.65 323.074 24.981H323.058C326.341 25.1414 329.431 26.5793 331.668 28.9875C333.905 31.3957 335.112 34.5832 335.03 37.8691C334.948 41.155 333.585 44.2786 331.231 46.5726C328.877 48.8666 325.719 50.1491 322.432 50.146H322.435Z" fill="#EB3745"/>
<path d="M322.435 30.1411H318.061V27.5531C318.062 24.1062 317.041 20.7364 315.127 17.8699C313.213 15.0034 310.492 12.7689 307.307 11.4491C304.123 10.1293 300.619 9.78348 297.238 10.4554C293.858 11.1272 290.752 12.7866 288.314 15.2236C285.877 17.6607 284.217 20.7659 283.544 24.1465C282.871 27.5271 283.216 31.0312 284.535 34.2157C285.855 37.4002 288.088 40.122 290.954 42.0368C293.821 43.9517 297.19 44.9735 300.637 44.9731H322.437C324.404 44.9731 326.29 44.1918 327.681 42.801C329.072 41.4102 329.853 39.5239 329.853 37.5571C329.853 35.5903 329.072 33.704 327.681 32.3132C326.29 30.9224 324.404 30.1411 322.437 30.1411" fill="#EB3745"/>
<path d="M5.442 61.2524H0.847C0.622616 61.2522 0.407483 61.163 0.248725 61.0044C0.089968 60.8458 0.000529053 60.6308 0 60.4064L0 16.0264C0 15.8037 0.0884997 15.59 0.24603 15.4325C0.403561 15.2749 0.617218 15.1864 0.84 15.1864H5.506C5.617 15.1863 5.72694 15.2081 5.82952 15.2505C5.9321 15.2929 6.02531 15.3551 6.1038 15.4336C6.18229 15.5121 6.24453 15.6053 6.28695 15.7079C6.32936 15.8105 6.35113 15.9204 6.351 16.0314V19.4634C7.83994 17.8594 9.64554 16.5819 11.6536 15.7116C13.6617 14.8413 15.8285 14.3972 18.017 14.4074C28.581 14.4074 36.294 22.3124 36.294 32.7424C36.3281 37.4921 34.5152 42.0692 31.238 45.5074C29.6164 47.2798 27.6289 48.6786 25.4133 49.607C23.1977 50.5354 20.8067 50.9713 18.406 50.8844C16.1413 50.9198 13.894 50.4829 11.8075 49.6018C9.72094 48.7206 7.84084 47.4144 6.287 45.7664V60.4034C6.287 60.6276 6.19801 60.8427 6.03957 61.0013C5.88113 61.1599 5.6662 61.2492 5.442 61.2494V61.2524ZM17.824 44.7954C19.3944 44.7926 20.9488 44.4801 22.3983 43.8759C23.8478 43.2717 25.1639 42.3876 26.2714 41.2743C27.3789 40.1609 28.256 38.8401 28.8526 37.3875C29.4491 35.9348 29.7534 34.3788 29.748 32.8084C29.8031 31.1979 29.5339 29.5927 28.9565 28.0882C28.3792 26.5837 27.5053 25.2106 26.3869 24.0504C25.2685 22.8902 23.9283 21.9666 22.446 21.3344C20.9637 20.7023 19.3695 20.3745 17.758 20.3704C11.666 20.3704 6.092 25.8764 6.092 32.3574C6.092 39.4194 11.601 44.7974 17.823 44.7964L17.824 44.7954ZM68.124 45.8304C66.635 47.4342 64.8293 48.7116 62.8213 49.5817C60.8132 50.4518 58.6464 50.8958 56.458 50.8854C45.894 50.8854 38.246 42.9854 38.246 32.5514C38.1886 27.8097 39.9786 23.2317 43.237 19.7864C44.8585 18.0136 46.846 16.6144 49.0619 15.686C51.2778 14.7575 53.669 14.3219 56.07 14.4094C58.3262 14.3685 60.5658 14.8033 62.6428 15.6854C64.7199 16.5676 66.5878 17.8774 68.125 19.5294V16.1604C68.1258 15.9367 68.2153 15.7224 68.3739 15.5645C68.5325 15.4067 68.7472 15.3182 68.971 15.3184H73.631C73.8546 15.3184 74.0691 15.4071 74.2274 15.5649C74.3858 15.7227 74.4752 15.9368 74.476 16.1604V49.2604C74.4761 49.3714 74.4544 49.4814 74.4119 49.584C74.3695 49.6865 74.3073 49.7797 74.2288 49.8582C74.1503 49.9367 74.0571 49.999 73.9545 50.0414C73.8519 50.0838 73.742 50.1056 73.631 50.1054H68.971C68.8599 50.1056 68.7498 50.0838 68.6471 50.0413C68.5444 49.9988 68.4511 49.9365 68.3725 49.8579C68.2939 49.7794 68.2316 49.686 68.1891 49.5833C68.1467 49.4806 68.1249 49.3706 68.125 49.2594L68.124 45.8304ZM56.783 44.9304C62.875 44.9304 68.449 39.4244 68.449 32.9434C68.449 25.8804 62.874 20.5054 56.649 20.5054C55.0774 20.5021 53.5207 20.8101 52.0688 21.4116C50.6169 22.0132 49.2985 22.8964 48.1898 24.0102C47.0811 25.1241 46.204 26.4465 45.6091 27.9011C45.0143 29.3558 44.7134 30.9139 44.724 32.4854C44.6761 34.0996 44.9524 35.707 45.5364 37.2126C46.1205 38.7182 47.0004 40.0914 48.1243 41.2511C49.2481 42.4107 50.5931 43.3333 52.0796 43.9642C53.5662 44.5952 55.1641 44.9217 56.779 44.9244L56.783 44.9304ZM81.929 61.2524H77.329C77.1048 61.2522 76.8899 61.1629 76.7314 61.0043C76.573 60.8457 76.484 60.6306 76.484 60.4064V16.0304C76.484 15.8063 76.573 15.5914 76.7315 15.4329C76.89 15.2745 77.1049 15.1854 77.329 15.1854H81.989C82.2131 15.1854 82.428 15.2745 82.5865 15.4329C82.745 15.5914 82.834 15.8063 82.834 16.0304V19.4624C84.3232 17.8589 86.1289 16.5818 88.1369 15.7119C90.145 14.8419 92.3116 14.3981 94.5 14.4084C105.065 14.4084 112.777 22.3084 112.777 32.7434C112.811 37.4928 110.999 42.0699 107.723 45.5084C106.102 47.2807 104.115 48.6795 101.899 49.6077C99.684 50.536 97.2934 50.9716 94.893 50.8844C92.6286 50.9196 90.3816 50.4827 88.2953 49.6018C86.2089 48.7208 84.3289 47.4149 82.775 45.7674V60.4054C82.7751 60.5165 82.7534 60.6266 82.711 60.7293C82.6686 60.832 82.6064 60.9253 82.5279 61.0039C82.4495 61.0826 82.3563 61.145 82.2537 61.1877C82.1511 61.2303 82.0401 61.2523 81.929 61.2524ZM94.31 44.7954C95.8804 44.7926 97.4349 44.4801 98.8844 43.8759C100.334 43.2717 101.65 42.3877 102.758 41.2743C103.865 40.161 104.743 38.8402 105.339 37.3876C105.936 35.9349 106.24 34.3789 106.235 32.8084C106.235 25.5524 100.793 20.3704 94.246 20.3704C88.153 20.3704 82.579 25.8764 82.579 32.3574C82.579 39.4194 88.089 44.7964 94.31 44.7954ZM132.748 44.9254C134.653 44.9563 136.533 44.4839 138.198 43.5559C139.862 42.628 141.252 41.2774 142.228 39.6404C142.303 39.5146 142.409 39.4101 142.536 39.3371C142.663 39.2641 142.807 39.2249 142.953 39.2234H148.227C148.37 39.2234 148.511 39.2597 148.636 39.3289C148.762 39.398 148.868 39.4979 148.944 39.619C149.02 39.7402 149.065 39.8787 149.073 40.0217C149.081 40.1646 149.053 40.3073 148.991 40.4364C145.655 47.4294 139.928 51.1464 132.749 51.1464C130.346 51.2009 127.959 50.7437 125.746 49.8051C123.534 48.8665 121.546 47.468 119.915 45.7024C116.614 42.2175 114.761 37.6084 114.731 32.8084C114.661 28.0961 116.427 23.5413 119.656 20.1084C121.279 18.2815 123.278 16.8265 125.515 15.8428C127.752 14.8591 130.175 14.3698 132.619 14.4084C135.604 14.3884 138.546 15.1198 141.173 16.5353C143.801 17.9509 146.031 20.005 147.656 22.5084C149.731 25.6844 150.638 29.3784 150.638 34.1714V34.2974C150.638 34.5216 150.548 34.7366 150.39 34.895C150.231 35.0534 150.016 35.1424 149.792 35.1424H121.343C121.739 37.8763 123.112 40.3741 125.208 42.1735C127.304 43.9728 129.981 44.9519 132.743 44.9294L132.748 44.9254ZM132.813 20.5004C127.368 20.5004 123.026 23.9314 121.536 29.5054H143.766C142.211 23.8054 138.194 20.5004 132.813 20.5004ZM152.975 49.6574V16.5574C152.975 16.3332 153.065 16.1183 153.223 15.9599C153.382 15.8014 153.597 15.7124 153.821 15.7124H158.021C158.245 15.7124 158.46 15.8015 158.618 15.9599C158.777 16.1184 158.866 16.3333 158.866 16.5574V19.7294C160.756 16.8974 164.866 15.4614 167.959 15.1794C168.077 15.1687 168.195 15.1827 168.307 15.2204C168.419 15.2581 168.522 15.3187 168.61 15.3984C168.697 15.4781 168.767 15.5751 168.814 15.6832C168.862 15.7913 168.887 15.9082 168.887 16.0264V20.9074C168.888 21.1125 168.814 21.3108 168.678 21.4649C168.543 21.6189 168.356 21.718 168.152 21.7434C162.83 22.3824 159.252 25.3044 159.252 31.1314V49.6574C159.252 49.7686 159.23 49.8786 159.188 49.9813C159.145 50.084 159.083 50.1774 159.005 50.2559C158.926 50.3345 158.833 50.3968 158.73 50.4393C158.627 50.4818 158.517 50.5036 158.406 50.5034H153.82C153.596 50.5032 153.381 50.4139 153.222 50.2553C153.064 50.0967 152.975 49.8816 152.975 49.6574ZM176.687 21.6904H170.818C170.707 21.6907 170.596 21.669 170.494 21.6265C170.391 21.584 170.297 21.5216 170.218 21.4429C170.14 21.3642 170.077 21.2708 170.035 21.1679C169.992 21.065 169.971 20.9547 169.971 20.8434V16.8354C169.971 16.7241 169.992 16.6139 170.035 16.511C170.077 16.4081 170.14 16.3146 170.218 16.2359C170.297 16.1572 170.391 16.0948 170.494 16.0524C170.596 16.0099 170.707 15.9882 170.818 15.9884H176.687V6.75544C176.687 6.53141 176.776 6.31663 176.935 6.15822C177.093 5.99981 177.308 5.9107 177.532 5.91044H182.064C182.288 5.91044 182.503 5.99946 182.661 6.15793C182.82 6.3164 182.909 6.53133 182.909 6.75544V15.9884H188.779C188.89 15.9886 189 16.0106 189.103 16.0533C189.206 16.096 189.299 16.1585 189.378 16.2372C189.456 16.316 189.518 16.4094 189.561 16.5122C189.603 16.615 189.625 16.7252 189.625 16.8364V20.8444C189.625 21.0689 189.536 21.2842 189.377 21.443C189.219 21.6018 189.003 21.6912 188.779 21.6914H182.909V49.9344C182.909 50.1586 182.82 50.3736 182.661 50.5324C182.503 50.6911 182.288 50.7806 182.064 50.7814H177.535C177.311 50.7809 177.096 50.6915 176.937 50.5327C176.778 50.374 176.689 50.1588 176.689 49.9344V21.6924L176.687 21.6904ZM191.219 49.6574V16.5574C191.219 16.3333 191.308 16.1184 191.466 15.9599C191.625 15.8015 191.84 15.7124 192.064 15.7124H196.27C196.494 15.7124 196.709 15.8015 196.868 15.9599C197.026 16.1184 197.115 16.3333 197.115 16.5574V19.7304C199.008 16.8914 203.129 15.4554 206.225 15.1774C206.342 15.1678 206.459 15.1827 206.569 15.221C206.68 15.2593 206.781 15.3203 206.867 15.4C206.953 15.4797 207.021 15.5764 207.067 15.6839C207.113 15.7915 207.136 15.9074 207.135 16.0244V20.9084C207.136 21.1118 207.064 21.3087 206.93 21.4621C206.797 21.6155 206.612 21.7149 206.41 21.7414C201.082 22.3774 197.504 25.2974 197.504 31.1324V49.6564C197.504 49.7674 197.482 49.8774 197.44 49.98C197.398 50.0825 197.335 50.1757 197.257 50.2542C197.178 50.3327 197.085 50.395 196.983 50.4374C196.88 50.4798 196.77 50.5016 196.659 50.5014H192.064C191.953 50.502 191.843 50.4805 191.74 50.4382C191.637 50.3959 191.544 50.3337 191.465 50.2551C191.387 50.1766 191.325 50.0832 191.282 49.9804C191.24 49.8777 191.218 49.7686 191.219 49.6574ZM235.969 45.8294C234.48 47.4339 232.674 48.7117 230.665 49.582C228.656 50.4523 226.489 50.8962 224.3 50.8854C213.736 50.8854 206.088 42.9854 206.088 32.5514C206.031 27.8097 207.821 23.2317 211.079 19.7864C212.7 18.0136 214.688 16.6145 216.904 15.6861C219.12 14.7576 221.511 14.322 223.912 14.4094C226.168 14.3685 228.407 14.8032 230.484 15.6854C232.561 16.5676 234.428 17.8774 235.965 19.5294V16.1604C235.966 15.9365 236.055 15.722 236.214 15.5642C236.373 15.4063 236.588 15.3179 236.812 15.3184H241.472C241.696 15.3182 241.911 15.4066 242.069 15.5645C242.228 15.7223 242.318 15.9366 242.319 16.1604V49.2604C242.319 49.3716 242.297 49.4816 242.254 49.5843C242.212 49.6869 242.149 49.7802 242.071 49.8587C241.992 49.9371 241.899 49.9993 241.796 50.0417C241.693 50.084 241.583 50.1057 241.472 50.1054H236.812C236.701 50.1057 236.591 50.084 236.488 50.0416C236.385 49.9992 236.292 49.9368 236.213 49.8582C236.135 49.7796 236.072 49.6863 236.03 49.5835C235.987 49.4807 235.966 49.3706 235.966 49.2594V45.8294H235.969ZM224.628 44.9294C230.72 44.9294 236.294 39.4234 236.294 32.9424C236.294 25.8794 230.721 20.5044 224.494 20.5044C222.922 20.5015 221.366 20.8099 219.914 21.4119C218.462 22.0139 217.144 22.8975 216.035 24.0117C214.927 25.1259 214.05 26.4487 213.456 27.9036C212.861 29.3585 212.561 30.9168 212.572 32.4884C212.524 34.1024 212.801 35.7095 213.385 37.2148C213.969 38.72 214.849 40.093 215.972 41.2523C217.096 42.4117 218.441 43.334 219.927 43.9648C221.414 44.5955 223.011 44.9218 224.626 44.9244L224.628 44.9294ZM246.46 10.5384V5.77744C246.476 5.5694 246.573 5.37588 246.73 5.23872C246.887 5.10155 247.092 5.03176 247.3 5.04444H251.83C252.038 5.03195 252.243 5.1014 252.401 5.23798C252.559 5.37456 252.657 5.56743 252.675 5.77544V10.5324C252.659 10.7412 252.561 10.9353 252.403 11.0724C252.245 11.2095 252.039 11.2785 251.83 11.2644H247.3C247.091 11.2769 246.886 11.2072 246.728 11.0702C246.57 10.9332 246.472 10.7398 246.455 10.5314L246.46 10.5384ZM247.305 15.1304H251.835C252.059 15.1304 252.274 15.2195 252.433 15.3779C252.591 15.5364 252.68 15.7513 252.68 15.9754V49.0754C252.68 49.2995 252.591 49.5142 252.432 49.6726C252.274 49.8311 252.059 49.9202 251.835 49.9204H247.3C247.076 49.9202 246.861 49.8309 246.702 49.6723C246.544 49.5137 246.455 49.2986 246.455 49.0744V15.9744C246.455 15.8633 246.476 15.7531 246.518 15.6503C246.561 15.5475 246.623 15.454 246.701 15.3753C246.78 15.2966 246.873 15.2342 246.976 15.1917C247.079 15.1491 247.189 15.1273 247.3 15.1274L247.305 15.1304ZM257.928 5.04444H262.457C262.681 5.04444 262.896 5.13343 263.055 5.29187C263.213 5.45031 263.303 5.66524 263.303 5.88944V49.0744C263.302 49.2986 263.213 49.5133 263.055 49.6717C262.896 49.8301 262.681 49.9192 262.457 49.9194H257.928C257.817 49.9196 257.707 49.8978 257.604 49.8554C257.502 49.813 257.408 49.7508 257.33 49.6723C257.251 49.5938 257.189 49.5006 257.146 49.398C257.104 49.2954 257.082 49.1855 257.082 49.0744V5.89144C257.082 5.78031 257.103 5.67023 257.146 5.56753C257.188 5.46482 257.251 5.37152 257.329 5.29299C257.408 5.21446 257.501 5.15225 257.604 5.10993C257.707 5.06762 257.817 5.04604 257.928 5.04644" fill="#192A42"/>
</svg>
